<svg width="68" height="68" viewBox="0 0 68 68" fill="none" xmlns="http://www.w3.org/2000/svg">
<rect width="68" height="68" rx="34" fill="#2B9972" fill-opacity="0.1"/>
<path d="M48.625 31.75H48.0625V25.5625H48.625C48.7742 25.5625 48.9173 25.5032 49.0227 25.3977C49.1282 25.2923 49.1875 25.1492 49.1875 25C49.1875 24.8508 49.1282 24.7077 49.0227 24.6023C48.9173 24.4968 48.7742 24.4375 48.625 24.4375H45.5763C46.2004 23.8628 46.6364 23.1131 46.8274 22.2865C47.0184 21.4599 46.9554 20.5949 46.6466 19.8047C46.3378 19.0145 45.7976 18.3359 45.0968 17.8578C44.396 17.3797 43.5671 17.1243 42.7188 17.125H21.625C21.4758 17.125 21.3327 17.1843 21.2273 17.2898C21.1218 17.3952 21.0625 17.5383 21.0625 17.6875C21.0625 17.8367 21.1218 17.9798 21.2273 18.0852C21.3327 18.1907 21.4758 18.25 21.625 18.25H22.1875V24.4375H21.625C21.4758 24.4375 21.3327 24.4968 21.2273 24.6023C21.1218 24.7077 21.0625 24.8508 21.0625 25C21.0625 25.1492 21.1218 25.2923 21.2273 25.3977C21.3327 25.5032 21.4758 25.5625 21.625 25.5625H24.6738C24.2448 25.9556 23.9022 26.4337 23.6679 26.9663C23.4335 27.4989 23.3125 28.0744 23.3125 28.6563C23.3125 29.2381 23.4335 29.8136 23.6679 30.3462C23.9022 30.8788 24.2448 31.3569 24.6738 31.75H17.6875C17.5383 31.75 17.3952 31.8093 17.2898 31.9148C17.1843 32.0202 17.125 32.1633 17.125 32.3125C17.125 32.4617 17.1843 32.6048 17.2898 32.7102C17.3952 32.8157 17.5383 32.875 17.6875 32.875H18.25V39.0625H17.6875C17.5383 39.0625 17.3952 39.1218 17.2898 39.2273C17.1843 39.3327 17.125 39.4758 17.125 39.625C17.125 39.7742 17.1843 39.9173 17.2898 40.0228C17.3952 40.1282 17.5383 40.1875 17.6875 40.1875H22.4181L22.2944 40.3C21.7048 40.8903 21.3035 41.6422 21.1412 42.4606C20.9789 43.279 21.0629 44.1271 21.3826 44.8978C21.7023 45.6684 22.2433 46.327 22.9373 46.7902C23.6312 47.2534 24.4469 47.5004 25.2812 47.5H25.5625V50.3125C25.5631 50.4236 25.5965 50.532 25.6585 50.6241C25.7206 50.7161 25.8085 50.7878 25.9113 50.83C26.0137 50.8731 26.1266 50.8848 26.2357 50.8638C26.3448 50.8428 26.4453 50.7899 26.5244 50.7119L28.375 48.8556L30.2256 50.7119C30.2782 50.764 30.3405 50.8053 30.4091 50.8332C30.4776 50.8612 30.551 50.8754 30.625 50.875C30.6988 50.8769 30.772 50.8615 30.8387 50.83C30.9415 50.7878 31.0294 50.7161 31.0915 50.6241C31.1535 50.532 31.1869 50.4236 31.1875 50.3125V47.5H46.375C46.5242 47.5 46.6673 47.4407 46.7727 47.3353C46.8782 47.2298 46.9375 47.0867 46.9375 46.9375C46.9375 46.7883 46.8782 46.6452 46.7727 46.5398C46.6673 46.4343 46.5242 46.375 46.375 46.375H45.8125V40.1875H46.375C46.5242 40.1875 46.6673 40.1282 46.7727 40.0228C46.8782 39.9173 46.9375 39.7742 46.9375 39.625C46.9375 39.4758 46.8782 39.3327 46.7727 39.2273C46.6673 39.1218 46.5242 39.0625 46.375 39.0625H41.6388C42.0677 38.6694 42.4103 38.1913 42.6446 37.6587C42.879 37.1261 43 36.5506 43 35.9688C43 35.3869 42.879 34.8114 42.6446 34.2788C42.4103 33.7462 42.0677 33.2681 41.6388 32.875H48.625C48.7742 32.875 48.9173 32.8157 49.0227 32.7102C49.1282 32.6048 49.1875 32.4617 49.1875 32.3125C49.1875 32.1633 49.1282 32.0202 49.0227 31.9148C48.9173 31.8093 48.7742 31.75 48.625 31.75ZM44.6875 40.1875V46.375H31.1875V44.125C31.1875 43.9758 31.1282 43.8327 31.0227 43.7273C30.9173 43.6218 30.7742 43.5625 30.625 43.5625H26.125C25.9758 43.5625 25.8327 43.6218 25.7273 43.7273C25.6218 43.8327 25.5625 43.9758 25.5625 44.125V46.375H25.2812C24.4607 46.375 23.6738 46.0491 23.0936 45.4689C22.5134 44.8887 22.1875 44.1018 22.1875 43.2813C22.1875 42.4607 22.5134 41.6738 23.0936 41.0936C23.6738 40.5134 24.4607 40.1875 25.2812 40.1875H44.6875ZM46.9375 31.75H27.5312C26.7107 31.75 25.9238 31.4241 25.3436 30.8439C24.7634 30.2637 24.4375 29.4768 24.4375 28.6563C24.4375 27.8357 24.7634 27.0488 25.3436 26.4686C25.9238 25.8884 26.7107 25.5625 27.5312 25.5625H46.9375V31.75Z" fill="#3DD7A1"/>
</svg>
